<?xml version="1.0" standalone="no"?>
<!DOCTYPE svg PUBLIC "-//W3C//DTD SVG 20010904//EN"
 "http://www.w3.org/TR/2001/REC-SVG-20010904/DTD/svg10.dtd">
<svg version="1.0" xmlns="http://www.w3.org/2000/svg"
 width="335.000000pt" height="335.000000pt" viewBox="0 0 335.000000 335.000000"
 preserveAspectRatio="xMidYMid meet">
<metadata>
Created by potrace 1.11, written by Peter Selinger 2001-2013
</metadata>
<g transform="translate(0.000000,335.000000) scale(0.100000,-0.100000)"
fill="#000000" stroke="none">
<path d="M1490 3339 c-25 -3 -64 -9 -87 -12 -61 -9 -196 -45 -288 -76 -469
-163 -848 -542 -1016 -1016 -17 -49 -33 -96 -35 -104 -2 -9 -10 -41 -18 -71
-43 -159 -54 -447 -25 -634 43 -278 146 -524 315 -753 258 -349 657 -587 1094
-654 92 -14 333 -19 415 -9 136 17 161 21 185 30 14 5 50 14 80 21 72 16 191
60 287 106 327 155 592 412 760 733 37 73 83 173 88 195 1 5 7 22 13 38 14 33
49 167 63 240 18 96 23 161 23 297 0 178 -9 263 -45 405 -77 306 -236 584
-455 796 -256 247 -551 395 -919 459 -78 14 -365 20 -435 9z"/>
</g>
</svg>
